<svg version="1.0" xmlns="http://www.w3.org/2000/svg"
 width="2100.000000pt" height="1500.000000pt" viewBox="0 0 2100.000000 1500.000000"
 preserveAspectRatio="xMidYMid meet">

<g transform="translate(0.000000,1500.000000) scale(0.100000,-0.100000)"
fill="#000" stroke="none">
<path d="M12789 10845 c-19 -13 -45 -32 -59 -42 -14 -9 -52 -42 -85 -72 -33
-31 -102 -94 -154 -141 -51 -47 -123 -113 -160 -147 -83 -78 -111 -104 -197
-178 -38 -33 -98 -87 -135 -120 -36 -33 -115 -103 -174 -155 -60 -52 -121
-107 -135 -121 -14 -14 -77 -70 -140 -124 -63 -54 -144 -126 -180 -159 -36
-34 -96 -88 -134 -121 -38 -33 -79 -69 -90 -81 -12 -11 -75 -68 -141 -125 -66
-57 -129 -113 -140 -125 -11 -12 -58 -55 -105 -96 -47 -41 -96 -85 -110 -98
-14 -14 -55 -50 -90 -80 -35 -30 -91 -80 -124 -111 -34 -30 -133 -118 -221
-195 -88 -76 -167 -146 -175 -155 -8 -9 -53 -50 -100 -90 -47 -41 -89 -79 -95
-85 -40 -45 -188 -165 -200 -161 -7 3 -28 27 -46 54 -18 26 -53 73 -79 103
-25 30 -73 91 -105 134 -33 44 -78 103 -100 131 -22 29 -50 66 -62 81 -12 16
-36 47 -53 69 -16 22 -39 54 -51 72 -11 17 -34 36 -51 42 -19 7 -120 11 -255
11 -220 0 -256 -4 -275 -34 -4 -6 -8 -477 -8 -1047 0 -973 1 -1038 18 -1058
16 -20 28 -22 220 -26 l203 -5 25 25 25 25 -1 680 c-1 374 2 679 6 677 12 -3
64 -64 104 -122 19 -27 47 -66 62 -85 30 -38 132 -164 177 -220 51 -62 96
-119 112 -142 22 -31 86 -29 112 4 10 12 24 30 30 38 7 8 109 116 227 240 117
124 279 294 359 379 80 84 168 176 196 205 27 28 110 116 185 196 74 80 173
184 220 231 47 47 148 153 225 234 77 82 165 173 195 204 30 31 95 99 143 151
73 78 218 232 402 425 17 18 98 103 180 190 179 189 176 186 527 546 283 290
344 360 334 385 -8 20 -18 18 -57 -11z"/>
<path d="M11199 8408 c-41 -46 -85 -94 -99 -108 -29 -29 -184 -192 -345 -360
-60 -63 -154 -162 -210 -220 -55 -58 -165 -174 -245 -259 -80 -84 -172 -182
-205 -216 -33 -34 -113 -118 -177 -186 -64 -68 -147 -156 -185 -195 -37 -39
-151 -159 -252 -265 -102 -107 -266 -279 -365 -384 -100 -104 -206 -216 -236
-249 -30 -32 -82 -87 -115 -121 -33 -35 -130 -136 -215 -226 -85 -90 -211
-222 -280 -294 -121 -126 -177 -184 -438 -460 -67 -72 -126 -134 -131 -138
-11 -11 -22 -22 -166 -170 -264 -271 -348 -363 -362 -396 -8 -18 -12 -35 -10
-37 8 -9 61 17 96 47 34 28 41 34 68 60 40 38 74 67 104 91 19 14 63 55 99 89
36 35 88 84 116 109 60 54 224 202 349 316 50 45 111 99 136 120 25 22 54 47
65 56 70 65 379 341 477 428 66 58 167 148 226 200 58 52 119 106 135 120 16
14 40 37 55 51 14 14 76 67 136 119 61 51 117 100 125 109 8 9 56 52 105 96
50 43 115 102 145 131 30 29 93 85 140 124 47 40 95 82 107 94 11 12 47 44 80
72 32 28 105 93 162 145 91 83 220 196 305 269 16 14 38 34 50 46 11 11 80 71
151 133 72 62 151 136 176 164 78 86 77 90 74 -305 -3 -393 -1 -402 61 -410
22 -2 119 -4 218 -3 l179 1 23 28 24 27 0 900 c0 602 -3 907 -10 920 -7 12
-21 19 -39 19 -23 0 -43 -16 -102 -82z"/>
</g>
</svg>
